<svg
  version="1.2"
  xmlns="http://www.w3.org/2000/svg"
  viewBox="0 0 275 241"
  width="275"
  height="241"
>
	<title>logo_1-svg</title>
	<style>
		.s0 { fill: none;stroke: #ffffff ;stroke-linecap: round;stroke-width: 15 }
		.s1 { fill: none;stroke: #ffffff ;stroke-linecap: round;stroke-linejoin: round;stroke-width: 15 }
		.s2 { fill: #ffffff  }
	</style>
	<g id="Vector">
		<path id="Layer" class="s0" d="m146.7 96l-35.6 64.3" />
	</g>
	<g id="Vector_2">
		<path id="Layer" class="s1" d="m184.4 114.2l-13.5-7" />
	</g>
	<g id="Vector_3">
		<path
      id="Layer"
      class="s1"
      d="m170.9 149.9l36.4-19.7c1.6-0.9 1.6-2.5 0-3.4l-9.1-4.9"
    />
	</g>
	<g id="Vector_4">
		<path
      id="Layer"
      class="s1"
      d="m70.2 140.1l-19-10.2c-1.6-0.9-1.6-2.4 0-3.3l35.8-19.4"
    />
	</g>
	<g id="Vector_5">
		<path id="Layer" class="s1" d="m87 149.9l-5-3.5" />
	</g>
	<g id="SAR DEVELOPS CAN DO IT">
		<path
      id="Layer"
      fill-rule="evenodd"
      class="s2"
      d="m16.1 190.2q-1.2-0.7-3.7-0.7-2.5 0-4.1 1.4-0.4 0.7-0.4 2 0 2.7 2.9 3.8l4.7 1.8q4.6 1.8 4.6 6.4 0 3.1-2.2 4.8-2.2 1.6-5.7 1.6-4.8 0-7.9-3l2.3-3.9 0.8 0.3 0.6 3.4q1.3 1 3.8 1 5.4 0 5.4-3.7 0-1.5-0.9-2.4-1-0.9-3-1.7l-4.1-1.6q-4.2-1.6-4.2-5.8 0-3.2 2.2-4.9 2.2-1.7 5.7-1.7 4.2 0 6.8 3l-2.6 3.5-0.8-0.2zm22 18.3q0-0.3-0.1-0.5l-1.6-4.6h-8.4l-1.9 5.5 3.1 1.3-0.2 0.8h-8l-0.2-0.8 2-0.8q0.6-0.3 0.8-0.5 0.1-0.2 0.4-0.9l7.2-20.1 2.2-0.6 0.7 0.3 7.8 21.4 2.8 1.2-0.3 0.8h-8.8l-0.2-0.8 2-0.8q0.7-0.3 0.7-0.9zm-5.9-17l-3.6 10.1h7.1zm21.5 9.3h-2.1v8.1l3 1.3-0.2 0.8h-8.7l-0.2-0.8 2-0.8q0.6-0.3 0.8-0.6 0.3-0.2 0.3-0.8v-18.3l-3.1-1.3 0.2-0.8q5.9-0.3 8.1-0.3 9.4 0 9.4 6.7 0 5.3-5.7 6.6 0.4 0.3 0.7 1 2.4 5 3.6 6.5 1.2 1.5 3.7 2l-0.3 0.9-4 0.3q-1.9-1.6-2.9-3.1-1-1.6-3.3-6.4-0.5-1-1.3-1zm-2.1-10.6v8.8h2.4q2.6 0 4.1-0.6 0.8-0.6 1.3-1.3 0.4-0.8 0.4-2.3 0-2.4-1.3-3.9-1.2-1.6-4-1.6h-1.9q-1 0-1 0.9zm25.8 17.8v-18.3l-3.1-1.3 0.2-0.8q8.2-0.3 10.2-0.3 12.1 0 12.1 12.3 0 6.4-3.5 9.1-3.3 2.6-10.7 2.6-0.9 0-8.1-0.3l-0.2-0.8 2-0.8q0.6-0.3 0.8-0.6 0.3-0.2 0.3-0.8zm7.9-18.7h-3.9q-0.9 0-0.9 0.9v18.9q1.4 0.1 3.6 0.1 4.7 0 7.1-1.5 2.2-2.7 2.2-7.7 0-5-2.1-7.9-2.1-2.8-6-2.8zm20.2 1.3v7.7q3.4 0 7-0.3l1.1-0.1 0.4 0.4-0.4 2q-4.3-0.2-8.1-0.2v9l7.8-0.1 1.8-3.2 1 0.3v4.9h-16.5l-0.2-0.8 1.9-0.8q0.7-0.3 0.9-0.6 0.3-0.2 0.3-0.8v-18.3l-3.1-1.3 0.2-0.8h16.4v4.9l-1.1 0.3-1.7-3.2-6.7-0.1q-1 0-1 1.1zm18.4-0.5q0 0.2 0.1 0.5l5.8 16.5 6.1-17.4-3.1-1.3 0.2-0.8h7.9l0.3 0.8-2 0.8q-0.6 0.3-0.8 0.5-0.2 0.2-0.4 0.9l-7.2 20-2.2 0.7-0.7-0.3-7.8-21.5-2.8-1.1 0.2-0.8h8.9l0.2 0.8-2 0.8q-0.7 0.3-0.7 0.9zm24.2 0.5v7.7q3.4 0 6.9-0.3l1.2-0.1 0.4 0.4-0.4 2q-4.3-0.2-8.1-0.2v9l7.8-0.1 1.7-3.2 1.1 0.3v4.9h-16.5l-0.3-0.8 2-0.8q0.7-0.3 0.9-0.6 0.2-0.2 0.2-0.8v-18.3l-3.1-1.3 0.3-0.8h16.3v4.9l-1 0.3-1.8-3.2-6.6-0.1q-1 0-1 1.1zm19.6 0v18.5l8-0.1 1.7-3.2 1.1 0.3v4.9h-16.7l-0.2-0.8 1.9-0.8q0.7-0.3 0.9-0.6 0.3-0.2 0.3-0.8v-18.3l-3.1-1.3 0.2-0.8h8.8l0.2 0.8-2 0.8q-0.6 0.3-0.9 0.6-0.2 0.2-0.2 0.8zm12.8 8.9q0-3 0.9-5.4 1-2.4 2.5-3.8 3.4-3 8-3 4.7 0 7.7 3.2 3 3.1 3 8.7 0 3-1 5.4-0.9 2.3-2.5 3.8-3.3 2.9-8 2.9-4.6 0-7.6-3.1-3-3.2-3-8.7zm5.6-8.6q-2.3 3.1-2.3 7.9 0 4.9 2 7.6 2.1 2.7 6 2.7 3.2 0 5.2-1.4 2.2-2.7 2.2-7.7 0-5-2-7.7-2.1-2.7-5.9-2.7-3.1 0-5.2 1.3zm27.6 10.3q-0.8 0-2.5-0.1v7.7l3.5 1.4-0.2 0.8h-9.2l-0.2-0.8 2-0.8q0.6-0.3 0.8-0.6 0.3-0.2 0.3-0.8v-18.3l-3.1-1.3 0.2-0.8q5.7-0.3 8-0.3 4.7 0 7 1.7 2.3 1.7 2.3 5.2 0 7-8.9 7zm0.2-11.9h-1.7q-1 0-1 0.9v8.9q1 0.2 2.2 0.2 2.5 0 4.5-0.9 1.3-1 1.3-3.7 0-5.4-5.3-5.4zm22.6 0.9q-1.2-0.7-3.7-0.7-2.5 0-4.1 1.4-0.4 0.7-0.4 2 0 2.7 3 3.8l4.6 1.8q4.6 1.8 4.6 6.4 0 3.1-2.2 4.8-2.2 1.6-5.6 1.6-4.9 0-8-3l2.3-3.9 0.9 0.3 0.5 3.4q1.3 1 3.9 1 5.3 0 5.3-3.7 0-1.5-0.9-2.4-0.9-0.9-2.9-1.7l-4.2-1.6q-4.2-1.6-4.2-5.8 0-3.2 2.3-4.9 2.2-1.7 5.6-1.7 4.3 0 6.8 3l-2.5 3.5-0.9-0.2zm-151.8 41.9q-2.6 0-4.2-1.6-1.6-1.7-1.6-4.7 0-3 1.8-4.6 1.7-1.7 4.2-1.7 1.8 0 2.7 0.8 0.7 0.5 1 0.9l-1.3 1.7-0.4-0.1-0.1-1.8q-0.9-0.3-2.3-0.3-1.3 0-2.2 0.4-1.7 1.6-1.7 4.5 0 2.6 1.3 4 1.3 1.4 3.4 1.4 1.5 0 3.1-0.9l0.3 0.6q-0.5 0.5-1.5 1-1.1 0.4-2.5 0.4zm13.4-1.4q0-0.2 0-0.3l-0.9-2.4h-4.4l-1 2.9 1.6 0.7-0.1 0.4h-4.2l-0.1-0.4 1-0.5q0.4-0.1 0.4-0.2 0.1-0.1 0.3-0.5l3.8-10.6 1.1-0.3 0.4 0.1 4.1 11.4 1.5 0.6-0.1 0.4h-4.7l-0.1-0.4 1-0.5q0.4-0.1 0.4-0.4zm-3.1-9l-1.9 5.3h3.8zm18.2-0.4v10.7l-1.3 0.2-7.1-10v8.7l1.7 0.7-0.1 0.4h-4.3l-0.2-0.4 1.1-0.4q0.3-0.2 0.4-0.3 0.2-0.2 0.2-0.5v-9.6l-1.7-0.7 0.2-0.4h3.1l6.8 9.5v0.1-0.1-8.4l-1.7-0.7 0.2-0.4h4.2l0.2 0.4-1.1 0.4q-0.3 0.2-0.5 0.3-0.1 0.2-0.1 0.5zm8.6 9.1v-9.6l-1.6-0.7 0.1-0.4q4.3-0.2 5.4-0.2 6.3 0 6.3 6.5 0 3.4-1.8 4.8-1.8 1.4-5.6 1.4-0.5 0-4.3-0.2l-0.1-0.4 1-0.4q0.4-0.2 0.5-0.3 0.1-0.2 0.1-0.5zm4.2-9.8h-2.1q-0.5 0-0.5 0.4v10q0.8 0.1 1.9 0.1 2.5 0 3.8-0.8 1.2-1.5 1.2-4.1 0-2.6-1.1-4.1-1.1-1.5-3.2-1.5zm7.8 5.3q0-1.6 0.5-2.8 0.5-1.3 1.3-2 1.8-1.6 4.2-1.6 2.5 0 4.1 1.7 1.6 1.7 1.6 4.6 0 1.6-0.5 2.8-0.5 1.3-1.4 2-1.7 1.6-4.2 1.6-2.4 0-4-1.7-1.6-1.6-1.6-4.6zm3-4.5q-1.2 1.7-1.2 4.2 0 2.5 1.1 4 1 1.4 3.1 1.4 1.7 0 2.7-0.7 1.2-1.5 1.2-4.1 0-2.6-1.1-4-1-1.5-3.1-1.5-1.6 0-2.7 0.7zm17.6-0.1v9.6l1.7 0.7-0.2 0.4h-4.6l-0.1-0.4 1-0.4q0.4-0.2 0.5-0.3 0.1-0.2 0.1-0.5v-9.6l-1.6-0.7 0.1-0.4h4.6l0.2 0.4-1.1 0.4q-0.3 0.2-0.5 0.3-0.1 0.2-0.1 0.5zm12.3-1.6v2.6l-0.5 0.1-0.9-1.8h-2.1q-0.3 0-0.4 0.1-0.1 0.2-0.1 0.4v9.8l1.6 0.7-0.1 0.4h-4.7l-0.1-0.4 1.1-0.4q0.3-0.2 0.4-0.3 0.2-0.2 0.2-0.5v-9.8h-2.6l-1 1.8-0.4-0.1v-2.6z"
    />
	</g>
</svg>
